<svg viewBox="0 0 24 24" xmlns="http://www.w3.org/2000/svg"><path d="m0 0h24v24h-24z" fill="none"/><path d="m182.28774 175.27379-6-2.4a4.01114 4.01114 0 0 0 -2.97 0l-6 2.4a4.0002 4.0002 0 0 0 -2.51 3.72v7.2a3.9968 3.9968 0 0 0 2.51 3.71l6 2.4a4.01114 4.01114 0 0 0 2.97 0l6-2.4a4.006 4.006 0 0 0 2.52-3.71v-7.2a4.00934 4.00934 0 0 0 -2.52-3.72zm-.7597 3.66-4.32 1.73a2.60359 2.60359 0 0 0 -1.65 2.44v5.44a.75.75 0 0 1 -1.5 0v-5.44a4.07558 4.07558 0 0 1 .41-1.81 4.209 4.209 0 0 1 -1.2-.29l-5.19-2.07a.74932.74932 0 0 1 .56-1.39l5.19 2.07a2.62865 2.62865 0 0 0 1.95 0l5.19-2.07a.74.74 0 0 1 .97.41.7475.7475 0 0 1 -.41004.97998z" fill="#030835" transform="translate(-162.80776 -170.58877)"/></svg>